<svg width="10" height="6" viewBox="0 0 10 6" fill="none" xmlns="http://www.w3.org/2000/svg">
<path d="M1.58079 0H9.02879C9.16062 2.81496e-05 9.28949 0.0391426 9.39909 0.112399C9.5087 0.185655 9.59413 0.289764 9.64457 0.411564C9.69502 0.533364 9.70822 0.667386 9.68251 0.796687C9.6568 0.925989 9.59333 1.04477 9.50012 1.138L5.77612 4.862C5.6511 4.98698 5.48156 5.05719 5.30479 5.05719C5.12801 5.05719 4.95847 4.98698 4.83345 4.862L1.10945 1.138C1.01625 1.04477 0.952778 0.925989 0.927066 0.796687C0.901354 0.667386 0.914557 0.533364 0.965003 0.411564C1.01545 0.289764 1.10088 0.185655 1.21048 0.112399C1.32009 0.0391426 1.44895 2.81496e-05 1.58079 0Z" fill="#858585"/>
</svg>
