<svg width="16" height="16" viewBox="0 0 16 16" fill="none" xmlns="http://www.w3.org/2000/svg">
<path d="M13.1692 5.33333C14.6399 5.33333 15.8359 4.13733 15.8359 2.66667C15.8359 1.196 14.6399 0 13.1692 0C11.6986 0 10.5026 1.196 10.5026 2.66667C10.5026 4.13733 11.6986 5.33333 13.1692 5.33333ZM13.1692 1.33333C13.9046 1.33333 14.5026 1.93133 14.5026 2.66667C14.5026 3.402 13.9046 4 13.1692 4C12.4339 4 11.8359 3.402 11.8359 2.66667C11.8359 1.93133 12.4339 1.33333 13.1692 1.33333ZM15.3506 10.8313L15.3472 10.8187V10.818L14.2986 6.50267C13.9399 6.608 13.5619 6.66733 13.1692 6.66733C13.0999 6.66733 13.0326 6.66067 12.9639 6.65667L14.0552 11.1467C14.0566 11.1513 14.0599 11.1547 14.0606 11.16H14.0579C14.1126 11.3653 14.0719 11.57 13.9452 11.7373C13.8172 11.9073 13.6279 12.0007 13.4146 12.0007H2.16458C1.96124 12.0007 1.77191 11.9093 1.64591 11.7533C1.51791 11.5933 1.46991 11.388 1.50791 11.212L3.07591 5.134C3.57324 2.89667 5.53058 1.334 7.83591 1.334C8.35124 1.334 8.85124 1.422 9.32391 1.57467C9.44924 1.134 9.64657 0.724667 9.90524 0.360667C9.25257 0.128667 8.55524 0.00133333 7.83591 0.00133333C4.90124 0 2.40858 1.992 1.77991 4.822L0.211909 10.9013C0.0805755 11.4947 0.223909 12.1087 0.605909 12.5867C0.987909 13.0613 1.55658 13.3333 2.16458 13.3333H4.56991C4.87991 14.8527 6.22591 16 7.83591 16C9.44591 16 10.7919 14.8527 11.1019 13.3333H13.4152C14.0466 13.3333 14.6266 13.0447 15.0086 12.5427C15.3792 12.054 15.5012 11.436 15.3512 10.8427C15.3506 10.8387 15.3512 10.8353 15.3512 10.8313H15.3506ZM7.83591 14.6667C6.96791 14.6667 6.23458 14.1073 5.95858 13.3333H9.71257C9.43657 14.1073 8.70324 14.6667 7.83524 14.6667H7.83591Z" fill="#4A4A4A"/>
</svg>
