<svg width="50" height="50" viewBox="0 0 50 50" fill="none" xmlns="http://www.w3.org/2000/svg">
<g clip-path="url(#clip0_2655_420)">
<g clip-path="url(#clip1_2655_420)">
<path d="M11.4366 24.1335H5.47703C5.29002 24.1335 5.13846 24.2851 5.13846 24.4721V28.4376C5.13846 28.6246 5.29002 28.7762 5.47703 28.7762H11.4366C11.6236 28.7762 11.7752 28.6246 11.7752 28.4376V24.4721C11.7752 24.2851 11.6236 24.1335 11.4366 24.1335Z" fill="#55A2F0"/>
<path d="M11.4366 24.1335H8.45868V28.7762H11.4366C11.6236 28.7762 11.7752 28.6246 11.7752 28.4376V24.4721C11.7752 24.2851 11.6236 24.1335 11.4366 24.1335Z" fill="#4B9EE2"/>
<path d="M39.3657 5.69708C38.9556 5.69708 38.6232 6.0295 38.6232 6.43966V13.9196C38.6232 14.3298 38.9556 14.6622 39.3657 14.6622C39.7759 14.6622 40.1083 14.3298 40.1083 13.9196V6.43966C40.1083 6.0296 39.7759 5.69708 39.3657 5.69708Z" fill="#2D5872"/>
<path d="M40.6154 16.7451H38.1161C37.685 16.7451 37.3355 16.3956 37.3355 15.9644V13.2334C37.3355 12.8022 37.685 12.4527 38.1161 12.4527H40.6154C41.0465 12.4527 41.396 12.8022 41.396 13.2334V15.9644C41.396 16.3956 41.0465 16.7451 40.6154 16.7451Z" fill="#FF4C4C"/>
<path d="M44.1422 24.6627H34.5893C34.1786 24.6627 33.8456 24.3297 33.8456 23.919V16.7087C33.8456 16.2979 34.1786 15.965 34.5893 15.965H44.1422C44.553 15.965 44.8859 16.298 44.8859 16.7087V23.919C44.8859 24.3297 44.553 24.6627 44.1422 24.6627Z" fill="#F33A3A"/>
<path d="M47.2019 49.9999H30.4387V19.5243H46.7903C47.0176 19.5243 47.2019 19.7086 47.2019 19.9359V49.9999Z" fill="#FF4C4C"/>
<path d="M46.7902 19.5243H42.237C42.4644 19.5243 42.6486 19.7086 42.6486 19.9359V49.9999H47.2019V19.9359C47.2019 19.7086 47.0176 19.5243 46.7902 19.5243Z" fill="#F33A3A"/>
<path d="M44.0669 26.7886H34.4613C34.1212 26.7886 33.8456 26.513 33.8456 26.173V24.7493C33.8456 24.4093 34.1213 24.1337 34.4613 24.1337H44.0669C44.407 24.1337 44.6825 24.4094 44.6825 24.7493V26.173C44.6825 26.513 44.407 26.7886 44.0669 26.7886Z" fill="#E1EFFB"/>
<path d="M44.0669 32.8757H34.4613C34.1212 32.8757 33.8456 32.6001 33.8456 32.2601V30.8364C33.8456 30.4964 34.1213 30.2208 34.4613 30.2208H44.0669C44.407 30.2208 44.6825 30.4964 44.6825 30.8364V32.2601C44.6825 32.6001 44.407 32.8757 44.0669 32.8757Z" fill="#E1EFFB"/>
<path d="M44.0669 38.9628H34.4613C34.1212 38.9628 33.8456 38.6872 33.8456 38.3472V36.9235C33.8456 36.5834 34.1213 36.3079 34.4613 36.3079H44.0669C44.407 36.3079 44.6825 36.5835 44.6825 36.9235V38.3472C44.6825 38.6872 44.407 38.9628 44.0669 38.9628Z" fill="#E1EFFB"/>
<path d="M44.0669 45.0499H34.4613C34.1212 45.0499 33.8456 44.7743 33.8456 44.4343V43.0106C33.8456 42.6705 34.1213 42.395 34.4613 42.395H44.0669C44.407 42.395 44.6825 42.6706 44.6825 43.0106V44.4343C44.6825 44.7743 44.407 45.0499 44.0669 45.0499Z" fill="#E1EFFB"/>
<path d="M34.7967 49.9999H15.4393C15.1298 49.9999 14.8789 49.7491 14.8789 49.4395V1.45705C14.8789 1.14748 15.1298 0.896606 15.4393 0.896606H34.7967C35.1063 0.896606 35.3572 1.14748 35.3572 1.45705V49.4395C35.3572 49.7491 35.1063 49.9999 34.7967 49.9999Z" fill="#FFB125"/>
<path d="M34.7968 0.896606H30.2436C30.5532 0.896606 30.804 1.14748 30.804 1.45705V49.4395C30.804 49.7491 30.5532 49.9999 30.2436 49.9999H34.7968C35.1064 49.9999 35.3573 49.7491 35.3573 49.4395V1.45705C35.3573 1.14748 35.1063 0.896606 34.7968 0.896606Z" fill="#FF901D"/>
<path d="M36.237 0H13.7629C13.6093 0 13.4846 0.124511 13.4846 0.278222V2.16455C13.4846 2.31816 13.6092 2.44277 13.7629 2.44277H36.237C36.3907 2.44277 36.5153 2.31826 36.5153 2.16455V0.278222C36.5153 0.124511 36.3907 0 36.237 0Z" fill="#FF901D"/>
<path d="M20.4946 9.16988H17.7713C17.5795 9.16988 17.4239 9.01441 17.4239 8.82252V5.49733C17.4239 5.30553 17.5794 5.14996 17.7713 5.14996H20.4946C20.6864 5.14996 20.8419 5.30543 20.8419 5.49733V8.82261C20.8419 9.01441 20.6864 9.16988 20.4946 9.16988Z" fill="#E1EFFB"/>
<path d="M26.4797 9.16988H23.7564C23.5646 9.16988 23.409 9.01441 23.409 8.82252V5.49733C23.409 5.30553 23.5645 5.14996 23.7564 5.14996H26.4797C26.6715 5.14996 26.8271 5.30543 26.8271 5.49733V8.82261C26.827 9.01441 26.6715 9.16988 26.4797 9.16988Z" fill="#E1EFFB"/>
<path d="M32.4648 9.16988H29.7414C29.5496 9.16988 29.3941 9.01441 29.3941 8.82252V5.49733C29.3941 5.30553 29.5495 5.14996 29.7414 5.14996H32.4648C32.6566 5.14996 32.8121 5.30543 32.8121 5.49733V8.82261C32.8121 9.01441 32.6567 9.16988 32.4648 9.16988Z" fill="#E1EFFB"/>
<path d="M20.4946 18.1399H17.7713C17.5795 18.1399 17.4239 17.9844 17.4239 17.7925V14.4672C17.4239 14.2754 17.5794 14.1199 17.7713 14.1199H20.4946C20.6864 14.1199 20.8419 14.2753 20.8419 14.4672V17.7925C20.8419 17.9844 20.6864 18.1399 20.4946 18.1399Z" fill="#E1EFFB"/>
<path d="M26.4797 18.1399H23.7564C23.5646 18.1399 23.409 17.9844 23.409 17.7925V14.4672C23.409 14.2754 23.5645 14.1199 23.7564 14.1199H26.4797C26.6715 14.1199 26.8271 14.2753 26.8271 14.4672V17.7925C26.827 17.9844 26.6715 18.1399 26.4797 18.1399Z" fill="#E1EFFB"/>
<path d="M32.4648 18.1399H29.7414C29.5496 18.1399 29.3941 17.9844 29.3941 17.7925V14.4672C29.3941 14.2754 29.5495 14.1199 29.7414 14.1199H32.4648C32.6566 14.1199 32.8121 14.2753 32.8121 14.4672V17.7925C32.8121 17.9844 32.6567 18.1399 32.4648 18.1399Z" fill="#E1EFFB"/>
<path d="M20.4946 27.1099H17.7713C17.5795 27.1099 17.4239 26.9544 17.4239 26.7625V23.4372C17.4239 23.2454 17.5794 23.0898 17.7713 23.0898H20.4946C20.6864 23.0898 20.8419 23.2453 20.8419 23.4372V26.7625C20.8419 26.9544 20.6864 27.1099 20.4946 27.1099Z" fill="#E1EFFB"/>
<path d="M26.4797 27.1099H23.7564C23.5646 27.1099 23.409 26.9544 23.409 26.7625V23.4372C23.409 23.2454 23.5645 23.0898 23.7564 23.0898H26.4797C26.6715 23.0898 26.8271 23.2453 26.8271 23.4372V26.7625C26.827 26.9544 26.6715 27.1099 26.4797 27.1099Z" fill="#E1EFFB"/>
<path d="M32.4648 27.1099H29.7414C29.5496 27.1099 29.3941 26.9544 29.3941 26.7625V23.4372C29.3941 23.2454 29.5495 23.0898 29.7414 23.0898H32.4648C32.6566 23.0898 32.8121 23.2453 32.8121 23.4372V26.7625C32.8121 26.9544 32.6567 27.1099 32.4648 27.1099Z" fill="#E1EFFB"/>
<path d="M26.4797 36.0799H23.7564C23.5646 36.0799 23.409 35.9244 23.409 35.7325V32.4072C23.409 32.2154 23.5645 32.0599 23.7564 32.0599H26.4797C26.6715 32.0599 26.8271 32.2153 26.8271 32.4072V35.7325C26.827 35.9244 26.6715 36.0799 26.4797 36.0799Z" fill="#E1EFFB"/>
<path d="M32.4648 36.0799H29.7414C29.5496 36.0799 29.3941 35.9244 29.3941 35.7325V32.4072C29.3941 32.2154 29.5495 32.0599 29.7414 32.0599H32.4648C32.6566 32.0599 32.8121 32.2153 32.8121 32.4072V35.7325C32.8121 35.9244 32.6567 36.0799 32.4648 36.0799Z" fill="#E1EFFB"/>
<path d="M26.4797 45.0499H23.7564C23.5646 45.0499 23.409 44.8945 23.409 44.7026V41.3773C23.409 41.1855 23.5645 41.0299 23.7564 41.0299H26.4797C26.6715 41.0299 26.8271 41.1854 26.8271 41.3773V44.7026C26.827 44.8945 26.6715 45.0499 26.4797 45.0499Z" fill="#E1EFFB"/>
<path d="M32.4648 45.0499H29.7414C29.5496 45.0499 29.3941 44.8945 29.3941 44.7026V41.3773C29.3941 41.1855 29.5495 41.0299 29.7414 41.0299H32.4648C32.6566 41.0299 32.8121 41.1854 32.8121 41.3773V44.7026C32.8121 44.8945 32.6567 45.0499 32.4648 45.0499Z" fill="#E1EFFB"/>
<path d="M23.821 49.9999H3.22606C2.98964 49.9999 2.79803 49.8083 2.79803 49.5719V27.7523C2.79803 27.5159 2.98964 27.3243 3.22606 27.3243H23.821C24.0575 27.3243 24.2491 27.5159 24.2491 27.7523V49.572C24.2491 49.8083 24.0575 49.9999 23.821 49.9999Z" fill="#61AFF6"/>
<path d="M23.8211 27.3243H19.1859C19.4223 27.3243 19.6139 27.5159 19.6139 27.7523V49.572C19.6139 49.8084 19.4223 50 19.1859 50H23.8211C24.0574 50 24.2491 49.8084 24.2491 49.572V27.7523C24.2491 27.5159 24.0575 27.3243 23.8211 27.3243Z" fill="#55A2F0"/>
<path d="M8.45868 33.513H5.76327C5.52597 33.513 5.33359 33.3206 5.33359 33.0833V31.3666C5.33359 31.1293 5.52597 30.937 5.76327 30.937H8.45868C8.69598 30.937 8.88837 31.1293 8.88837 31.3666V33.0833C8.88837 33.3206 8.69598 33.513 8.45868 33.513Z" fill="#E1EFFB"/>
<path d="M14.7333 33.513H12.0379C11.8006 33.513 11.6082 33.3206 11.6082 33.0833V31.3666C11.6082 31.1293 11.8006 30.937 12.0379 30.937H14.7333C14.9706 30.937 15.163 31.1293 15.163 31.3666V33.0833C15.163 33.3206 14.9706 33.513 14.7333 33.513Z" fill="#E1EFFB"/>
<path d="M21.0079 33.513H18.3125C18.0752 33.513 17.8828 33.3206 17.8828 33.0833V31.3666C17.8828 31.1293 18.0752 30.937 18.3125 30.937H21.0079C21.2452 30.937 21.4376 31.1293 21.4376 31.3666V33.0833C21.4376 33.3206 21.2452 33.513 21.0079 33.513Z" fill="#E1EFFB"/>
<path d="M8.45868 39.5383H5.76327C5.52597 39.5383 5.33359 39.3459 5.33359 39.1086V37.3919C5.33359 37.1546 5.52597 36.9622 5.76327 36.9622H8.45868C8.69598 36.9622 8.88837 37.1546 8.88837 37.3919V39.1086C8.88837 39.3459 8.69598 39.5383 8.45868 39.5383Z" fill="#E1EFFB"/>
<path d="M14.7333 39.5383H12.0379C11.8006 39.5383 11.6082 39.3459 11.6082 39.1086V37.3919C11.6082 37.1546 11.8006 36.9622 12.0379 36.9622H14.7333C14.9706 36.9622 15.163 37.1546 15.163 37.3919V39.1086C15.163 39.3459 14.9706 39.5383 14.7333 39.5383Z" fill="#E1EFFB"/>
<path d="M21.0079 39.5383H18.3125C18.0752 39.5383 17.8828 39.3459 17.8828 39.1086V37.3919C17.8828 37.1546 18.0752 36.9622 18.3125 36.9622H21.0079C21.2452 36.9622 21.4376 37.1546 21.4376 37.3919V39.1086C21.4376 39.3459 21.2452 39.5383 21.0079 39.5383Z" fill="#E1EFFB"/>
<path d="M8.45868 45.5636H5.76327C5.52597 45.5636 5.33359 45.3712 5.33359 45.1339V43.4172C5.33359 43.1799 5.52597 42.9875 5.76327 42.9875H8.45868C8.69598 42.9875 8.88837 43.1799 8.88837 43.4172V45.1339C8.88837 45.3712 8.69598 45.5636 8.45868 45.5636Z" fill="#E1EFFB"/>
<path d="M14.7333 45.5636H12.0379C11.8006 45.5636 11.6082 45.3712 11.6082 45.1339V43.4172C11.6082 43.1799 11.8006 42.9875 12.0379 42.9875H14.7333C14.9706 42.9875 15.163 43.1799 15.163 43.4172V45.1339C15.163 45.3712 14.9706 45.5636 14.7333 45.5636Z" fill="#E1EFFB"/>
<path d="M21.0079 45.5636H18.3125C18.0752 45.5636 17.8828 45.3712 17.8828 45.1339V43.4172C17.8828 43.1799 18.0752 42.9875 18.3125 42.9875H21.0079C21.2452 42.9875 21.4376 43.1799 21.4376 43.4172V45.1339C21.4376 45.3712 21.2452 45.5636 21.0079 45.5636Z" fill="#E1EFFB"/>
<path d="M47.8858 47.7059H2.11416C1.48067 47.7059 0.967194 48.2194 0.967194 48.8529C0.967194 49.4864 1.48067 49.9999 2.11416 49.9999H47.8859C48.5193 49.9999 49.0328 49.4864 49.0328 48.8529C49.0327 48.2195 48.5193 47.7059 47.8858 47.7059Z" fill="#2D5872"/>
<path d="M49.0255 48.7271C49.0246 48.7194 49.0231 48.712 49.0221 48.7044C49.0176 48.6696 49.0118 48.6353 49.0042 48.6015C49.0031 48.5967 49.0017 48.592 49.0005 48.5872C48.9917 48.5502 48.9812 48.514 48.9689 48.4783C48.9684 48.477 48.9679 48.4756 48.9674 48.4742C48.9539 48.4359 48.9385 48.3984 48.9212 48.362V48.3619C48.7371 47.9744 48.3433 47.7059 47.8858 47.7059H44.4795V47.998C44.4795 48.5612 44.0229 49.018 43.4595 49.018H2.11416C1.65665 49.018 1.2628 48.7494 1.07872 48.3619C1.00792 48.5109 0.967194 48.677 0.967194 48.8528C0.967194 49.4862 1.48067 49.9998 2.11416 49.9998H44.4795H47.8858C48.5193 49.9998 49.0327 49.4863 49.0327 48.8528C49.0327 48.8104 49.03 48.7684 49.0255 48.7271Z" fill="#1D4859"/>
</g>
</g>
<defs>
<clipPath id="clip0_2655_420">
<rect width="50" height="50" fill="white"/>
</clipPath>
<clipPath id="clip1_2655_420">
<rect width="50" height="50" fill="white"/>
</clipPath>
</defs>
</svg>
