<svg width="16" height="17" viewBox="0 0 16 17" fill="none" xmlns="http://www.w3.org/2000/svg">
<g clip-path="url(#clip0_174_266)">
<path d="M15.3333 7.83353C15.1565 7.83353 14.987 7.76329 14.8619 7.63827C14.7369 7.51324 14.6667 7.34367 14.6667 7.16686C14.6653 5.75281 14.1029 4.39707 13.103 3.39719C12.1031 2.3973 10.7474 1.83494 9.33333 1.83353C9.15652 1.83353 8.98695 1.76329 8.86193 1.63827C8.73691 1.51324 8.66667 1.34367 8.66667 1.16686C8.66667 0.990052 8.73691 0.820483 8.86193 0.695459C8.98695 0.570434 9.15652 0.500197 9.33333 0.500197C11.1008 0.502138 12.7954 1.20514 14.0452 2.45496C15.2951 3.70478 15.9981 5.39935 16 7.16686C16 7.34367 15.9298 7.51324 15.8047 7.63827C15.6797 7.76329 15.5101 7.83353 15.3333 7.83353ZM13.3333 7.16686C13.3333 6.106 12.9119 5.08858 12.1618 4.33844C11.4116 3.58829 10.3942 3.16686 9.33333 3.16686C9.15652 3.16686 8.98695 3.2371 8.86193 3.36213C8.73691 3.48715 8.66667 3.65672 8.66667 3.83353C8.66667 4.01034 8.73691 4.17991 8.86193 4.30493C8.98695 4.42996 9.15652 4.5002 9.33333 4.5002C10.0406 4.5002 10.7189 4.78115 11.219 5.28125C11.719 5.78134 12 6.45962 12 7.16686C12 7.34367 12.0702 7.51324 12.1953 7.63827C12.3203 7.76329 12.4899 7.83353 12.6667 7.83353C12.8435 7.83353 13.013 7.76329 13.1381 7.63827C13.2631 7.51324 13.3333 7.34367 13.3333 7.16686ZM14.7887 15.2762L15.3953 14.5769C15.7815 14.1895 15.9983 13.6648 15.9983 13.1179C15.9983 12.5709 15.7815 12.0462 15.3953 11.6589C15.3747 11.6382 13.7707 10.4042 13.7707 10.4042C13.3857 10.0378 12.8744 9.8337 12.3429 9.83445C11.8114 9.83519 11.3006 10.0407 10.9167 10.4082L9.646 11.4789C8.60878 11.0496 7.66659 10.4196 6.87352 9.62521C6.08046 8.83077 5.45214 7.88749 5.02467 6.84953L6.09133 5.58286C6.45914 5.19898 6.66486 4.68811 6.66573 4.15647C6.6666 3.62482 6.46255 3.11328 6.096 2.7282C6.096 2.7282 4.86067 1.1262 4.84 1.10553C4.45963 0.722695 3.94392 0.504878 3.40428 0.49914C2.86465 0.493402 2.34442 0.700203 1.956 1.07486L1.18933 1.74153C-3.34 6.9962 6.41333 16.6742 11.8413 16.5002C12.3895 16.5034 12.9327 16.3967 13.4389 16.1865C13.9451 15.9762 14.404 15.6667 14.7887 15.2762Z" fill="white"/>
</g>
<defs>
<clipPath id="clip0_174_266">
<rect width="16" height="16" fill="white" transform="translate(0 0.5)"/>
</clipPath>
</defs>
</svg>
