<svg width="16" height="17" viewBox="0 0 16 17" fill="none" xmlns="http://www.w3.org/2000/svg">
<g clip-path="url(#clip0_174_229)">
<path d="M16 8.54883C16 12.5415 13.0707 15.8515 9.24667 16.4522V10.8768H11.106L11.46 8.57016H9.24667V7.07349C9.24667 6.44216 9.556 5.82749 10.5467 5.82749H11.5527V3.86349C11.5527 3.86349 10.6393 3.70749 9.76667 3.70749C7.944 3.70749 6.75333 4.81216 6.75333 6.81149V8.56949H4.72733V10.8762H6.75333V16.4515C2.93 15.8502 0 12.5408 0 8.54883C0 4.13083 3.582 0.548828 8 0.548828C12.418 0.548828 16 4.13016 16 8.54883Z" fill="white"/>
</g>
<defs>
<clipPath id="clip0_174_229">
<rect width="16" height="16" fill="white" transform="translate(0 0.5)"/>
</clipPath>
</defs>
</svg>
