<svg width="16" height="17" viewBox="0 0 16 17" fill="none" xmlns="http://www.w3.org/2000/svg">
<path d="M8 1.94133C10.136 1.94133 10.3893 1.94933 11.2327 1.988C12.1047 2.028 13.0027 2.22667 13.638 2.862C14.2793 3.50333 14.472 4.39267 14.512 5.26733C14.5507 6.11067 14.5587 6.364 14.5587 8.5C14.5587 10.636 14.5507 10.8893 14.512 11.7327C14.4727 12.6 14.2693 13.5067 13.638 14.138C12.9967 14.7793 12.108 14.972 11.2327 15.012C10.3893 15.0507 10.136 15.0587 8 15.0587C5.864 15.0587 5.61067 15.0507 4.76733 15.012C3.90667 14.9727 2.988 14.7647 2.362 14.138C1.724 13.5 1.528 12.602 1.488 11.7327C1.44933 10.8893 1.44133 10.636 1.44133 8.5C1.44133 6.364 1.44933 6.11067 1.488 5.26733C1.52733 4.40333 1.73267 3.49133 2.362 2.862C3.002 2.222 3.89467 2.028 4.76733 1.988C5.61067 1.94933 5.864 1.94133 8 1.94133ZM8 0.5C5.82733 0.5 5.55467 0.509333 4.70133 0.548C3.46467 0.604667 2.23667 0.948667 1.34267 1.84267C0.445333 2.74 0.104667 3.96533 0.048 5.20133C0.00933333 6.05467 0 6.32733 0 8.5C0 10.6727 0.00933333 10.9453 0.048 11.7987C0.104667 13.034 0.45 14.2653 1.34267 15.1573C2.23933 16.054 3.46667 16.3953 4.70133 16.452C5.55467 16.4907 5.82733 16.5 8 16.5C10.1727 16.5 10.4453 16.4907 11.2987 16.452C12.5347 16.3953 13.764 16.0507 14.6573 15.1573C15.5553 14.2593 15.8953 13.0347 15.952 11.7987C15.9907 10.9453 16 10.6727 16 8.5C16 6.32733 15.9907 6.05467 15.952 5.20133C15.8953 3.96467 15.5507 2.736 14.6573 1.84267C13.762 0.947333 12.5313 0.604 11.2987 0.548C10.4453 0.509333 10.1727 0.5 8 0.5Z" fill="white"/>
<path d="M7.99997 4.39209C5.7313 4.39209 3.89197 6.23142 3.89197 8.50009C3.89197 10.7688 5.7313 12.6081 7.99997 12.6081C10.2686 12.6081 12.108 10.7688 12.108 8.50009C12.108 6.23142 10.2686 4.39209 7.99997 4.39209ZM7.99997 11.1668C6.5273 11.1668 5.3333 9.97276 5.3333 8.50009C5.3333 7.02742 6.5273 5.83342 7.99997 5.83342C9.47264 5.83342 10.6666 7.02742 10.6666 8.50009C10.6666 9.97276 9.47264 11.1668 7.99997 11.1668Z" fill="white"/>
<path d="M12.2707 5.18953C12.8009 5.18953 13.2307 4.75972 13.2307 4.22953C13.2307 3.69934 12.8009 3.26953 12.2707 3.26953C11.7405 3.26953 11.3107 3.69934 11.3107 4.22953C11.3107 4.75972 11.7405 5.18953 12.2707 5.18953Z" fill="white"/>
</svg>
