<svg width="50" height="50" viewBox="0 0 50 50" fill="none" xmlns="http://www.w3.org/2000/svg">
<g clip-path="url(#clip0_2655_1198)">
<path d="M4.84053 46.073L8.43213 46.9519L12.0236 46.073V44.3117L8.43213 43.4328L4.84053 44.3117V46.073Z" fill="#F9CF58"/>
<path d="M15.8857 46.073L19.4773 46.9519L23.0689 46.073V44.3117L19.4773 43.4328L15.8857 44.3117V46.073Z" fill="#FFAC3E"/>
<path d="M26.9311 46.073L30.5227 46.9519L34.1143 46.073V44.3117L30.5227 43.4328L26.9311 44.3117V46.073Z" fill="#82D361"/>
<path d="M37.9763 46.073L41.5679 46.9519L45.1595 46.073V44.3117L41.5679 43.4328L37.9763 44.3117V46.073Z" fill="#6CC4FF"/>
<path d="M12.0236 44.3117H4.84053V37.2056C4.84053 36.6651 5.27861 36.2271 5.81904 36.2271H11.0453C11.5857 36.2271 12.0238 36.6651 12.0238 37.2056V44.3117H12.0236Z" fill="#FFE27A"/>
<path d="M23.0689 44.3117H15.8857V31.8649C15.8857 31.3245 16.3238 30.8864 16.8643 30.8864H22.0904C22.6309 30.8864 23.0689 31.3245 23.0689 31.8649V44.3117Z" fill="#FFBA57"/>
<path d="M34.1143 44.3117H26.9311V26.5242C26.9311 25.9838 27.3691 25.5457 27.9096 25.5457H33.1358C33.6763 25.5457 34.1144 25.9838 34.1144 26.5242V44.3117H34.1143Z" fill="#98DB7C"/>
<path d="M45.1595 44.3117H37.9763V21.1835C37.9763 20.643 38.4144 20.205 38.9548 20.205H44.1811C44.7215 20.205 45.1596 20.643 45.1596 21.1835L45.1595 44.3117Z" fill="#8BCAFF"/>
<path d="M41.2066 11.4863L40.3446 2.89989C40.3147 2.60116 40.0251 2.39959 39.7346 2.47528L31.3774 4.65184C30.9729 4.75721 30.8783 5.28836 31.2215 5.52694L33.4046 7.04481C33.4046 7.04481 27.8057 17.9637 7.57617 24.2066V24.7523C13.1267 24.7827 27.6361 23.1953 36.7362 10.9669L38.2564 10.4182L40.4405 11.9368C40.7835 12.1753 41.2483 11.9019 41.2066 11.4863Z" fill="#FF4755"/>
<path d="M37.3801 9.7993C37.1623 9.64549 36.8628 9.69529 36.7037 9.90916C27.6036 22.1376 15.9289 23.6775 7.90723 24.2347C7.78906 24.243 7.68096 24.2311 7.58232 24.2048L7.57519 24.207C6.54053 24.5334 6.83037 26.071 7.91269 25.9957C16.0187 25.4317 29.3994 22.5369 38.2563 10.4183L37.3801 9.7993Z" fill="#FC2B3A"/>
<path d="M49.2661 47.5407H0.733887C0.328613 47.5407 0 47.2121 0 46.8068C0 46.4016 0.328516 46.0729 0.733887 46.0729H49.2662C49.6715 46.0729 50.0001 46.4016 50.0001 46.8068C50 47.2121 49.6714 47.5407 49.2661 47.5407Z" fill="#407093"/>
</g>
<defs>
<clipPath id="clip0_2655_1198">
<rect width="50" height="50" fill="white"/>
</clipPath>
</defs>
</svg>
