<svg width="50" height="50" viewBox="0 0 50 50" fill="none" xmlns="http://www.w3.org/2000/svg">
<g clip-path="url(#clip0_2655_1496)">
<path d="M1.66669 28.3333H15.8334V48.3333H1.66669V28.3333Z" fill="#57565C"/>
<path d="M28.3333 14.1667H48.3333V48.3334H28.3333V14.1667Z" fill="#898890"/>
<path d="M15.8333 21.6667H35.8333V48.3334H15.8333V21.6667Z" fill="#E0E0E2"/>
<path d="M7.00848 15.4916C7.32505 15.8004 7.50246 16.2244 7.50002 16.6667C7.50002 17.5871 6.75376 18.3334 5.83335 18.3334C4.91294 18.3334 4.16669 17.5871 4.16669 16.6667C4.16669 15.7463 4.91294 15 5.83335 15C6.27566 14.9976 6.69965 15.175 7.00848 15.4916Z" fill="#D80027"/>
<path d="M15 9.16667C15.0016 9.48242 14.9117 9.79207 14.7416 10.0582C14.4361 10.5408 13.9046 10.8333 13.3334 10.8333C12.4158 10.8264 11.6736 10.0842 11.6667 9.16667C11.6667 8.24626 12.4129 7.5 13.3334 7.5C14.2538 7.5 15 8.24626 15 9.16667Z" fill="#D80027"/>
<path d="M23.8334 13.9998C24.2684 14.5801 24.2786 15.3751 23.8582 15.966C23.4379 16.5568 22.6839 16.8082 21.993 16.5877C21.3021 16.3672 20.8333 15.7251 20.8333 15C20.8317 14.6842 20.9216 14.3746 21.0917 14.1085C21.3973 13.6259 21.9287 13.3333 22.5 13.3333C23.0237 13.337 23.5164 13.5832 23.8334 13.9998Z" fill="#D80027"/>
<path d="M3.33331 25H15.8333V28.3333H3.33331V25Z" fill="#ACABB1"/>
<path d="M6.66669 42.5H11.6667V48.3333H6.66669V42.5Z" fill="#B39A7C"/>
<path d="M23.3333 42.5H28.3333V48.3333H23.3333V42.5Z" fill="#B39A7C"/>
<path d="M10.8333 36.6667H13.3333V39.1667H10.8333V36.6667Z" fill="#BDFDFF"/>
<path d="M5 36.6667H7.5V39.1667H5V36.6667Z" fill="#BDFDFF"/>
<path d="M5 31.6667H7.5V34.1667H5V31.6667Z" fill="#BDFDFF"/>
<path d="M7.5 31.6667H5V34.1667C5 32.7861 6.11938 31.6667 7.5 31.6667Z" fill="#E2FEFF"/>
<path d="M10.8333 31.6667H13.3333V34.1667H10.8333V31.6667Z" fill="#BDFDFF"/>
<path d="M18.3333 35.8333H21.6666V39.1666H18.3333V35.8333Z" fill="#BDFDFF"/>
<path d="M24.1667 35.8333H27.5V39.1666H24.1667V35.8333Z" fill="#BDFDFF"/>
<path d="M33.3333 30V32.8752C33.1917 33.0249 33.0583 33.175 32.9248 33.3333H30V30H33.3333Z" fill="#BDFDFF"/>
<path d="M24.1667 30H27.5V33.3333H24.1667V30Z" fill="#BDFDFF"/>
<path d="M18.3333 30H21.6666V33.3333H18.3333V30Z" fill="#BDFDFF"/>
<path d="M30 24.1667H33.3333V27.5H30V24.1667Z" fill="#BDFDFF"/>
<path d="M24.1667 24.1667H27.5V27.5H24.1667V24.1667Z" fill="#BDFDFF"/>
<path d="M18.3333 24.1667H21.6666V27.5H18.3333V24.1667Z" fill="#BDFDFF"/>
<path d="M21.6666 24.1667H18.3333V27.5C18.3333 25.6592 19.8258 24.1667 21.6666 24.1667Z" fill="#E2FEFF"/>
<path d="M27.5 24.1667H24.1667V27.5C24.1667 25.6592 25.6592 24.1667 27.5 24.1667Z" fill="#E2FEFF"/>
<path d="M33.3333 24.1667H30V27.5C30 25.6592 31.4925 24.1667 33.3333 24.1667Z" fill="#E2FEFF"/>
<path d="M33.3333 30H30V33.3333C30 31.4925 31.4925 30 33.3333 30Z" fill="#E2FEFF"/>
<path d="M27.5 30H24.1667V33.3333C24.1667 31.4925 25.6592 30 27.5 30Z" fill="#E2FEFF"/>
<path d="M21.6666 30H18.3333V33.3333C18.3333 31.4925 19.8258 30 21.6666 30Z" fill="#E2FEFF"/>
<path d="M21.6666 35.8333H18.3333V39.1666C18.3333 37.3258 19.8258 35.8333 21.6666 35.8333Z" fill="#E2FEFF"/>
<path d="M27.5 35.8333H24.1667V39.1666C24.1667 37.3258 25.6592 35.8333 27.5 35.8333Z" fill="#E2FEFF"/>
<path d="M49.1666 39.1667C49.1666 44.2293 45.0626 48.3333 40 48.3333C34.9373 48.3333 30.8333 44.2293 30.8333 39.1667C30.8333 34.104 34.9373 30 40 30C45.0626 30 49.1666 34.104 49.1666 39.1667Z" fill="#FF9811"/>
<path d="M46.6666 39.1667C46.6666 42.8487 43.682 45.8333 40 45.8333C36.3179 45.8333 33.3333 42.8487 33.3333 39.1667C33.3333 35.4846 36.3179 32.5 40 32.5C43.682 32.5 46.6666 35.4846 46.6666 39.1667Z" fill="#FFDA44"/>
<path d="M40.8334 38.3334V36.6667C41.2936 36.6667 41.6667 37.0398 41.6667 37.5H43.3334C43.3334 36.1194 42.214 35 40.8334 35V34.1667H39.1667V35C37.7861 35 36.6667 36.1194 36.6667 37.5C36.6667 38.8806 37.7861 40 39.1667 40V41.6667C38.7065 41.6667 38.3334 41.2936 38.3334 40.8334H36.6667C36.6667 42.214 37.7861 43.3334 39.1667 43.3334V44.1667H40.8334V43.3334C42.214 43.3334 43.3334 42.214 43.3334 40.8334C43.3334 39.4527 42.214 38.3334 40.8334 38.3334ZM38.3334 37.5C38.3334 37.0398 38.7065 36.6667 39.1667 36.6667V38.3334C38.7065 38.3334 38.3334 37.9602 38.3334 37.5ZM40.8334 41.6667V40C41.2936 40 41.6667 40.3731 41.6667 40.8334C41.6667 41.2936 41.2936 41.6667 40.8334 41.6667Z" fill="white"/>
<path d="M0 48.3333H50V50H0V48.3333Z" fill="#57565C"/>
<path d="M6.42253 17.2559L5.24414 16.0775L12.7441 8.57749C13.0204 8.30121 13.4513 8.2536 13.7809 8.46316L22.4609 13.9877L36.2602 3.63934L37.2599 4.97235L23.0001 15.6665C22.7226 15.8749 22.3454 15.8895 22.0524 15.7036L13.4501 10.2283L6.42253 17.2559Z" fill="#1A6FB0"/>
<path d="M38.5832 9.16911L42.5 0L32.6009 1.19263L38.5832 9.16911Z" fill="#FF5023"/>
<path d="M30.8333 16.6667H32.5V18.3334H30.8333V16.6667Z" fill="#BDFDFF"/>
<path d="M34.1666 16.6667H35.8333V18.3334H34.1666V16.6667Z" fill="#BDFDFF"/>
<path d="M37.5 16.6667H39.1667V18.3334H37.5V16.6667Z" fill="#BDFDFF"/>
<path d="M40.8333 16.6667H42.5V18.3334H40.8333V16.6667Z" fill="#BDFDFF"/>
<path d="M44.1666 16.6667H45.8333V18.3334H44.1666V16.6667Z" fill="#BDFDFF"/>
<path d="M30.8333 20H32.5V21.6667H30.8333V20Z" fill="#BDFDFF"/>
<path d="M34.1666 20H35.8333V21.6667H34.1666V20Z" fill="#BDFDFF"/>
<path d="M37.5 20H39.1667V21.6667H37.5V20Z" fill="#BDFDFF"/>
<path d="M40.8333 20H42.5V21.6667H40.8333V20Z" fill="#BDFDFF"/>
<path d="M44.1666 20H45.8333V21.6667H44.1666V20Z" fill="#BDFDFF"/>
<path d="M37.5 23.3334H39.1667V25H37.5V23.3334Z" fill="#BDFDFF"/>
<path d="M40.8333 23.3334H42.5V25H40.8333V23.3334Z" fill="#BDFDFF"/>
<path d="M44.1666 23.3334H45.8333V25H44.1666V23.3334Z" fill="#BDFDFF"/>
<path d="M37.5 26.6667H39.1667V28.3334H37.5V26.6667Z" fill="#BDFDFF"/>
<path d="M40.8333 26.6667H42.5V28.3334H40.8333V26.6667Z" fill="#BDFDFF"/>
<path d="M44.1666 26.6667H45.8333V28.3334H44.1666V26.6667Z" fill="#BDFDFF"/>
<path d="M5.83335 18.3333C4.91294 18.3333 4.16669 17.5871 4.16669 16.6667C4.16669 15.7463 4.91294 15 5.83335 15C6.75376 15 7.50002 15.7463 7.50002 16.6667C7.50002 17.5871 6.75376 18.3333 5.83335 18.3333Z" fill="#FF5023"/>
<path d="M13.3334 10.8333C12.4129 10.8333 11.6667 10.0871 11.6667 9.16667C11.6667 8.24626 12.4129 7.5 13.3334 7.5C14.2538 7.5 15 8.24626 15 9.16667C15 10.0871 14.2538 10.8333 13.3334 10.8333Z" fill="#FF5023"/>
<path d="M22.5 16.6666C21.5796 16.6666 20.8333 15.9204 20.8333 15C20.8333 14.0796 21.5796 13.3333 22.5 13.3333C23.4204 13.3333 24.1666 14.0796 24.1666 15C24.1666 15.9204 23.4204 16.6666 22.5 16.6666Z" fill="#FF5023"/>
<path d="M14.1667 20.8333H37.5V22.5H14.1667V20.8333Z" fill="#57565C"/>
<path d="M15.8333 22.5H35.8333V23.3333H15.8333V22.5Z" fill="#C6C5CA"/>
<path d="M13.3333 31.6667H10.8333V34.1667C10.8333 32.7861 11.9527 31.6667 13.3333 31.6667Z" fill="#E2FEFF"/>
<path d="M7.5 36.6667H5V39.1667C5 37.7861 6.11938 36.6667 7.5 36.6667Z" fill="#E2FEFF"/>
<path d="M13.3333 36.6667H10.8333V39.1667C10.8333 37.7861 11.9527 36.6667 13.3333 36.6667Z" fill="#E2FEFF"/>
</g>
<defs>
<clipPath id="clip0_2655_1496">
<rect width="50" height="50" fill="white"/>
</clipPath>
</defs>
</svg>
