<svg width="16" height="17" viewBox="0 0 16 17" fill="none" xmlns="http://www.w3.org/2000/svg">
<g clip-path="url(#clip0_174_245)">
<path d="M15.3346 14.8893H15.486L15.196 14.4506C15.3733 14.4506 15.4673 14.3379 15.4686 14.1999C15.4686 14.1946 15.4686 14.1886 15.468 14.1833C15.468 13.9953 15.3546 13.9053 15.122 13.9053H14.746V14.8893H14.8873V14.4606H15.0613L15.3346 14.8893ZM15.0513 14.3493H14.8873V14.0166H15.0953C15.2026 14.0166 15.3253 14.0339 15.3253 14.1746C15.3253 14.3359 15.202 14.3493 15.0513 14.3493Z" fill="white"/>
<path d="M11.5273 13.2154H9.52267V10.0761C9.52267 9.32741 9.50933 8.36408 8.48 8.36408C7.436 8.36408 7.276 9.17941 7.276 10.0221V13.2154H5.272V6.75941H7.19667V7.64141H7.22333C7.616 6.97075 8.34533 6.57008 9.122 6.59875C11.154 6.59875 11.528 7.93541 11.528 9.67341L11.5273 13.2154ZM3.01 5.87675C2.36733 5.87675 1.84667 5.35608 1.84667 4.71341C1.84667 4.07075 2.36733 3.55008 3.01 3.55008C3.65267 3.55008 4.17333 4.07075 4.17333 4.71341C4.17333 5.35608 3.65267 5.87675 3.01 5.87675ZM4.012 13.2154H2.00533V6.75941H4.012V13.2154ZM12.5267 1.68875H0.998C0.453333 1.68275 0.00666667 2.11941 0 2.66408V14.2401C0.00666667 14.7854 0.453333 15.2221 0.998 15.2161H12.5267C13.0727 15.2227 13.5213 14.7861 13.5287 14.2401V2.66341C13.5207 2.11741 13.072 1.68075 12.5267 1.68808" fill="white"/>
<path d="M15.0687 13.4673C14.5593 13.472 14.15 13.8893 14.1553 14.3986C14.16 14.908 14.5773 15.3173 15.0867 15.312C15.596 15.3073 16.0053 14.89 16 14.3806C15.9953 13.878 15.5887 13.472 15.0867 13.4673H15.0687ZM15.09 15.206C14.6433 15.2133 14.254 14.858 14.2467 14.4113C14.2393 13.9646 14.5953 13.5966 15.042 13.5893C15.4887 13.582 15.8567 13.938 15.864 14.3846C15.864 14.3893 15.864 14.3933 15.864 14.398C15.8733 14.8346 15.5267 15.1966 15.09 15.206H15.0693H15.09Z" fill="white"/>
</g>
<defs>
<clipPath id="clip0_174_245">
<rect width="16" height="16" fill="white" transform="translate(0 0.5)"/>
</clipPath>
</defs>
</svg>
