<svg width="16" height="16" viewBox="0 0 16 16" fill="none" xmlns="http://www.w3.org/2000/svg">
<g clip-path="url(#clip0_174_263)">
<path d="M8 0.027832C6.23596 0.0297728 4.54472 0.731349 3.29729 1.97865C2.04986 3.22595 1.34812 4.91713 1.346 6.68117C1.346 8.3945 2.67267 11.0758 5.28933 14.6505C5.60084 15.0773 6.0087 15.4244 6.47973 15.6638C6.95076 15.9031 7.47165 16.0279 8 16.0279C8.52835 16.0279 9.04924 15.9031 9.52027 15.6638C9.9913 15.4244 10.3992 15.0773 10.7107 14.6505C13.3273 11.0758 14.654 8.3945 14.654 6.68117C14.6519 4.91713 13.9501 3.22595 12.7027 1.97865C11.4553 0.731349 9.76404 0.0297728 8 0.027832ZM8 9.33317C7.47258 9.33317 6.95701 9.17677 6.51848 8.88375C6.07995 8.59073 5.73815 8.17426 5.53632 7.68699C5.33449 7.19972 5.28168 6.66354 5.38457 6.14626C5.48747 5.62898 5.74144 5.15382 6.11438 4.78088C6.48732 4.40794 6.96248 4.15397 7.47976 4.05107C7.99704 3.94818 8.53322 4.00099 9.02049 4.20282C9.50776 4.40465 9.92424 4.74645 10.2173 5.18498C10.5103 5.62351 10.6667 6.13908 10.6667 6.6665C10.6667 7.37374 10.3857 8.05202 9.88562 8.55212C9.38552 9.05222 8.70724 9.33317 8 9.33317Z" fill="white"/>
</g>
<defs>
<clipPath id="clip0_174_263">
<rect width="16" height="16" fill="white"/>
</clipPath>
</defs>
</svg>
