<svg width="16" height="16" viewBox="0 0 16 16" fill="none" xmlns="http://www.w3.org/2000/svg">
<path d="M14.5973 4.91423C14.2273 5.3129 13.2047 6.36557 11.718 7.51223C10.1593 8.7149 8.394 9.68423 8.31933 9.7249C8.22 9.77957 8.11 9.8069 8 9.8069C7.89 9.8069 7.78 9.77957 7.68 9.7249C7.606 9.68423 5.84067 8.7149 4.28133 7.51223C2.79467 6.36557 1.772 5.3129 1.40133 4.91357L1.00867 4.49357C0.829333 5.41823 0.666667 6.63423 0.666667 8.0009C0.666667 10.9729 1.43733 13.2356 1.47067 13.3302C1.54533 13.5462 1.726 13.7089 1.94867 13.7609C2.06733 13.7889 4.89533 14.4429 8.00067 14.4429C11.2133 14.4429 13.9433 13.7876 14.058 13.7596C14.278 13.7062 14.4553 13.5449 14.53 13.3309C14.5627 13.2369 15.334 10.9909 15.334 8.00023C15.334 6.62223 15.1727 5.40957 14.9947 4.49023L14.5987 4.91423H14.5973Z" fill="white"/>
<path d="M2.37733 4.00477C2.65 4.29811 3.64867 5.33944 5.096 6.45544C6.19333 7.30211 7.42933 8.04344 8 8.37277C8.57067 8.04277 9.80933 7.30077 10.9033 6.45611C12.3513 5.34011 13.3493 4.29877 13.6207 4.00611L14.616 2.94144C14.5667 2.77944 14.534 2.68477 14.528 2.66744C14.4533 2.45477 14.276 2.29477 14.0573 2.24144C13.9427 2.21344 11.2193 1.55811 7.99933 1.55811C4.83667 1.55811 2.06133 2.21277 1.94467 2.24077C1.72267 2.29411 1.544 2.45611 1.47 2.67144C1.464 2.68944 1.432 2.78277 1.384 2.94277L2.37733 4.00611V4.00477Z" fill="white"/>
</svg>
