<svg width="72" height="72" viewBox="0 0 72 72" fill="none" xmlns="http://www.w3.org/2000/svg">
<rect x="6" y="6" width="60" height="60" rx="30" fill="white" fill-opacity="0.95"/>
<rect x="3" y="3" width="66" height="66" rx="33" stroke="white" stroke-opacity="0.35" stroke-width="6"/>
<path d="M27.0001 43.9517L27.0001 28.0528C26.996 27.3616 27.1698 26.681 27.5047 26.0764C27.8396 25.4718 28.3244 24.9634 28.9124 24.6002C29.4863 24.2414 30.1429 24.0363 30.819 24.0044C31.495 23.9725 32.168 24.115 32.7731 24.4181L46.7917 32.3816C47.46 32.7243 48.0205 33.2453 48.411 33.8869C48.8014 34.5285 49.0067 35.2657 49.004 36.0168C49.0013 36.7678 48.7908 37.5035 48.3957 38.1423C48.0006 38.7811 47.4365 39.2981 46.7657 39.6359L32.8221 47.5594C32.2125 47.8735 31.5319 48.0242 30.8467 47.9968C30.1615 47.9695 29.4951 47.765 28.9124 47.4034C28.3245 47.0402 27.8399 46.532 27.505 45.9276C27.1701 45.3231 26.9962 44.6427 27.0001 43.9517Z" fill="#82D361"/>
</svg>
