<svg width="16" height="13" viewBox="0 0 16 13" fill="none" xmlns="http://www.w3.org/2000/svg">
<path d="M15.6653 2.62377C15.4813 1.9311 14.9393 1.3851 14.2507 1.19977C13.0033 0.86377 8 0.86377 8 0.86377C8 0.86377 2.99667 0.86377 1.74867 1.19977C1.06067 1.3851 0.518667 1.93044 0.334667 2.62377C0 3.87977 0 6.49977 0 6.49977C0 6.49977 0 9.11977 0.334667 10.3758C0.518667 11.0684 1.06067 11.6144 1.74933 11.7998C2.99667 12.1358 8 12.1358 8 12.1358C8 12.1358 13.0033 12.1358 14.2513 11.7998C14.9393 11.6144 15.4813 11.0691 15.666 10.3758C16 9.11977 16 6.49977 16 6.49977C16 6.49977 16 3.87977 15.6653 2.62377ZM6.364 8.8791V4.12044L10.5453 6.49977L6.364 8.8791Z" fill="white"/>
</svg>
